<svg width="485" height="485" viewBox="0 0 485 485" fill="none" xmlns="http://www.w3.org/2000/svg">
<circle cx="242.492" cy="242.492" r="242.492" fill="#006948"/>
<path d="M249.133 227.87C232.981 208.116 216.829 192.013 216.829 175.861C216.829 167.294 220.233 159.077 226.291 153.019C232.349 146.961 240.565 143.558 249.133 143.558C257.7 143.558 265.917 146.961 271.975 153.019C278.033 159.077 281.436 167.294 281.436 175.861C281.436 192.013 265.317 208.197 248.971 227.87" stroke="white" stroke-width="13.3669" stroke-linecap="round" stroke-linejoin="round"/>
<path d="M249.133 337.379L290.643 280.848" stroke="white" stroke-width="13.3669" stroke-linecap="round" stroke-linejoin="round"/>
<path d="M156.147 192.271C166.541 177.248 180.421 164.966 196.598 156.479C212.776 147.991 230.769 143.55 249.038 143.536C267.307 143.521 285.307 147.934 301.498 156.397C317.688 164.859 331.587 177.118 342.005 192.126" stroke="white" stroke-width="13.3669" stroke-linecap="round" stroke-linejoin="round"/>
<path d="M206.331 281.332L249.133 227.87" stroke="white" stroke-width="13.3669" stroke-linecap="round" stroke-linejoin="round"/>
<path d="M206.331 281.332C180.133 244.441 152.222 211.734 152.222 159.71C152.222 138.291 162.433 117.75 180.607 102.605C198.781 87.4595 223.43 78.951 249.133 78.951C274.835 78.951 299.484 87.4595 317.659 102.605C335.833 117.75 346.043 138.291 346.043 159.71C345.962 211.718 317.325 244.264 290.643 280.847L348.094 353.966C349.441 355.68 350.426 357.649 350.992 359.754C351.557 361.859 351.691 364.057 351.385 366.214C351.078 368.372 350.338 370.446 349.209 372.311C348.08 374.175 346.586 375.792 344.815 377.063L314.224 399.029C310.785 401.493 306.518 402.51 302.338 401.86C298.158 401.211 294.399 398.948 291.87 395.557L249.133 337.378L205.862 395.411C203.326 398.825 199.547 401.1 195.344 401.744C191.141 402.388 186.853 401.349 183.411 398.852L153.288 376.999C151.537 375.727 150.059 374.117 148.942 372.264C147.825 370.41 147.091 368.351 146.785 366.209C146.48 364.067 146.607 361.885 147.161 359.793C147.715 357.701 148.684 355.741 150.01 354.031L206.331 281.332Z" stroke="white" stroke-width="13.3669" stroke-linecap="round" stroke-linejoin="round"/>
</svg>
